# xmcd CD database file
#
# Track frame offsets:
#	150
#	15425
#	33340
#	47010
#	57982
#	89270
#	106975
#	127835
#	150985
#	164095
#
# Disc length: 2404 seconds
#
# Revision: 0
# Processed by: cddbd v1.4PL0 Copyright (c) Steve Scherf et al.
# Submitted via: CDex 1.50beta10
#
DISCID=7009620a
DTITLE=Winnetonka Jazz Band - 2000-2001
DYEAR=2001
DGENRE=Jazz
TTITLE0=Big Mamma Cass
TTITLE1=Lil' Darlin
TTITLE2=Mopsy
TTITLE3=Bandstand Boogie
TTITLE4=Bunch of Blues
TTITLE5=When You're Smiling
TTITLE6=Evergreen
TTITLE7=Coffee and Castanets
TTITLE8=All of Me
TTITLE9=Peter Gunn
EXTD=YEAR: 2001
EXTT0=
EXTT1=
EXTT2=
EXTT3=
EXTT4=
EXTT5=
EXTT6=
EXTT7=
EXTT8=
EXTT9=
PLAYORDER=
